<?xml version="1.0" encoding="UTF-8"?>
<svg width="66px" height="42px" viewBox="0 0 66 42" version="1.1" xmlns="http://www.w3.org/2000/svg" xmlns:xlink="http://www.w3.org/1999/xlink">
    <!-- Generator: Sketch 48.2 (47327) - http://www.bohemiancoding.com/sketch -->
    <title>Icons / 140 Copy 2</title>
    <desc>Created with Sketch.</desc>
    <defs>
        <path d="M50.9272461,37.2 C50.9272461,33.8448701 48.2180005,31.125 44.8759766,31.125 C41.5339526,31.125 38.824707,33.8448701 38.824707,37.2 L16.6367188,37.2 L16.6367188,29.1 L65.046875,29.1 L65.046875,37.2 L50.9272461,37.2 Z M14.6196289,37.2 C14.6196289,33.8448701 11.9103833,31.125 8.56835938,31.125 C5.2263355,31.125 2.51708984,33.8448701 2.51708984,37.2 L0.5,37.2 L0.5,15.9375 L0.5,12.9 L14.6196289,2.775 L14.6196289,15.9375 L14.6196289,37.2 Z M8.56835938,41.25 C6.34034346,41.25 4.53417969,39.4367532 4.53417969,37.2 C4.53417969,34.9632468 6.34034346,33.15 8.56835938,33.15 C10.7963753,33.15 12.6025391,34.9632468 12.6025391,37.2 C12.6025391,39.4367532 10.7963753,41.25 8.56835938,41.25 Z M16.6367188,0.75 L65.046875,0.75 L65.046875,27.075 L16.6367188,27.075 L16.6367188,0.75 Z M44.8759766,41.25 C42.6479607,41.25 40.8417969,39.4367532 40.8417969,37.2 C40.8417969,34.9632468 42.6479607,33.15 44.8759766,33.15 C47.1039924,33.15 48.9101562,34.9632468 48.9101562,37.2 C48.9101562,39.4367532 47.1039924,41.25 44.8759766,41.25 Z" id="path-1"></path>
    </defs>
    <g id="Artboard" stroke="none" stroke-width="1" fill="none" fill-rule="evenodd" transform="translate(-405.000000, -157.000000)">
        <g id="Icons-/-140-Copy-2" transform="translate(405.000000, 157.000000)">
            <mask id="mask-2" fill="white">
                <use xlink:href="#path-1"></use>
            </mask>
            <use id="Mask" fill="#9BA9B0" fill-rule="nonzero" xlink:href="#path-1"></use>
            <path d="M24.0019531,21 L24.0019531,8.203125 L28.4931641,8.203125 C30.1103596,8.203125 31.3408161,8.4902315 32.1845703,9.06445312 C33.0283245,9.63867475 33.4501953,10.5234315 33.4501953,11.71875 C33.4501953,12.3398469 33.3125014,12.8832985 33.0371094,13.3491211 C32.7617174,13.8149437 32.328128,14.1650379 31.7363281,14.3994141 L31.7363281,14.4257812 C32.4804725,14.595704 33.0253889,14.9326147 33.3710938,15.4365234 C33.7167986,15.9404322 33.8896484,16.5322232 33.8896484,17.2119141 C33.8896484,18.4892642 33.4926798,19.4399383 32.6987305,20.0639648 C31.9047812,20.6879914 30.7138751,21 29.1259766,21 L24.0019531,21 Z M26.9814453,15.5068359 L26.9814453,18.7148438 L29.1259766,18.7148438 C29.7470734,18.7148438 30.2026353,18.5771498 30.4926758,18.3017578 C30.7827163,18.0263658 30.9277344,17.6513696 30.9277344,17.1767578 C30.9277344,16.6318332 30.7944349,16.2172866 30.527832,15.9331055 C30.2612291,15.6489244 29.8261749,15.5068359 29.2226562,15.5068359 L26.9814453,15.5068359 Z M26.9814453,13.5380859 L28.5546875,13.5380859 C29.228519,13.5263671 29.7163071,13.4003918 30.0180664,13.1601562 C30.3198257,12.9199207 30.4707031,12.5507837 30.4707031,12.0527344 C30.4707031,11.4902316 30.3183609,11.0888684 30.0136719,10.8486328 C29.7089829,10.6083972 29.202152,10.4882812 28.4931641,10.4882812 L26.9814453,10.4882812 L26.9814453,13.5380859 Z M46.1767578,15.7529297 C46.1767578,17.3584065 45.6831104,18.665034 44.6958008,19.6728516 C43.7084912,20.6806691 42.3974691,21.1845703 40.7626953,21.1845703 C39.1103433,21.1845703 37.7876026,20.6806691 36.7944336,19.6728516 C35.8012646,18.665034 35.3046875,17.3584065 35.3046875,15.7529297 L35.3046875,13.4501953 C35.3046875,11.8447185 35.7968701,10.538091 36.78125,9.53027344 C37.7656299,8.5224559 39.0839761,8.01855469 40.7363281,8.01855469 C42.3769613,8.01855469 43.6938427,8.52392073 44.6870117,9.53466797 C45.6801807,10.5454152 46.1767578,11.8505779 46.1767578,13.4501953 L46.1767578,15.7529297 Z M43.2148438,13.4326172 C43.2148438,12.4951125 43.0024435,11.7392607 42.5776367,11.1650391 C42.1528299,10.5908174 41.5390665,10.3037109 40.7363281,10.3037109 C39.9160115,10.3037109 39.2993185,10.5893526 38.8862305,11.1606445 C38.4731425,11.7319365 38.2666016,12.4892531 38.2666016,13.4326172 L38.2666016,15.7529297 C38.2666016,16.7021532 38.477537,17.4638643 38.8994141,18.0380859 C39.3212912,18.6123076 39.9423787,18.8994141 40.7626953,18.8994141 C41.5595743,18.8994141 42.1674784,18.6108427 42.5864258,18.0336914 C43.0053732,17.4565401 43.2148438,16.6962938 43.2148438,15.7529297 L43.2148438,13.4326172 Z M52.3291016,12.5185547 L54.4384766,8.203125 L57.8662109,8.203125 L54.2011719,14.5488281 L58.1474609,21 L54.5439453,21 L52.3642578,16.5966797 L50.1845703,21 L46.7480469,21 L50.5185547,14.5488281 L46.8535156,8.203125 L50.2548828,8.203125 L52.3291016,12.5185547 Z" id="BOX" fill="#FFFFFF" mask="url(#mask-2)"></path>
        </g>
    </g>
</svg>