<?xml version="1.0" encoding="UTF-8"?>
<svg width="115px" height="42px" viewBox="0 0 115 42" version="1.1" xmlns="http://www.w3.org/2000/svg" xmlns:xlink="http://www.w3.org/1999/xlink">
    <!-- Generator: Sketch 48.2 (47327) - http://www.bohemiancoding.com/sketch -->
    <title>Icons / 140</title>
    <desc>Created with Sketch.</desc>
    <defs>
        <path d="M74.3437499,37.2297794 C74.3437499,33.8993196 71.6364719,31.1994485 68.296875,31.1994485 C64.9572782,31.1994485 62.25,33.8993196 62.25,37.2297794 L60.234375,37.2297794 L60.234375,27.1792279 L94.5,27.1792279 L94.5,7.078125 L114.65625,7.078125 L114.65625,37.2297794 L110.625,37.2297794 C110.625,33.8993196 107.917722,31.1994485 104.578125,31.1994485 C101.238528,31.1994485 98.5312501,33.8993196 98.5312501,37.2297794 L96.515625,37.2297794 L74.3437499,37.2297794 Z M29.2265625,37.2 C29.2265625,33.8448701 26.4945501,31.125 23.1244419,31.125 C19.7543339,31.125 17.0223215,33.8448701 17.0223215,37.2 L14.9882812,37.2 C14.9882812,33.8448701 12.2562688,31.125 8.88616072,31.125 C5.51605261,31.125 2.78404018,33.8448701 2.78404018,37.2 L0.75,37.2 L0.75,27.075 L57.703125,27.075 L57.703125,37.2 L43.4648438,37.2 C43.4648438,33.8448701 40.7328313,31.125 37.3627232,31.125 C33.9926152,31.125 31.2606027,33.8448701 31.2606027,37.2 L29.2265625,37.2 Z M92.2818081,0.75 L92.2818081,25.05 L0.75,25.05 L0.75,0.75 L92.2818081,0.75 Z M37.3627232,41.25 C35.1159844,41.25 33.2946428,39.4367532 33.2946428,37.2 C33.2946428,34.9632468 35.1159844,33.15 37.3627232,33.15 C39.6094619,33.15 41.4308035,34.9632468 41.4308035,37.2 C41.4308035,39.4367532 39.6094619,41.25 37.3627232,41.25 Z M8.88616072,41.25 C6.63942198,41.25 4.81808035,39.4367532 4.81808035,37.2 C4.81808035,34.9632468 6.63942198,33.15 8.88616072,33.15 C11.1328995,33.15 12.9542411,34.9632468 12.9542411,37.2 C12.9542411,39.4367532 11.1328995,41.25 8.88616072,41.25 Z M23.1244419,41.25 C20.8777032,41.25 19.0563616,39.4367532 19.0563616,37.2 C19.0563616,34.9632468 20.8777032,33.15 23.1244419,33.15 C25.3711807,33.15 27.1925223,34.9632468 27.1925223,37.2 C27.1925223,39.4367532 25.3711807,41.25 23.1244419,41.25 Z M68.296875,41.25 C66.0704771,41.25 64.265625,39.450086 64.265625,37.2297794 C64.265625,35.0094728 66.0704771,33.2095588 68.296875,33.2095588 C70.5232729,33.2095588 72.3281251,35.0094728 72.3281251,37.2297794 C72.3281251,39.450086 70.5232729,41.25 68.296875,41.25 Z M104.578125,41.25 C102.351727,41.25 100.546875,39.450086 100.546875,37.2297794 C100.546875,35.0094728 102.351727,33.2095588 104.578125,33.2095588 C106.804523,33.2095588 108.609375,35.0094728 108.609375,37.2297794 C108.609375,39.450086 106.804523,41.25 104.578125,41.25 Z" id="path-1"></path>
    </defs>
    <g id="Artboard" stroke="none" stroke-width="1" fill="none" fill-rule="evenodd" transform="translate(-148.000000, -157.000000)">
        <g id="Icons-/-140" transform="translate(148.000000, 157.000000)">
            <mask id="mask-2" fill="white">
                <use xlink:href="#path-1"></use>
            </mask>
            <use id="Combined-Shape" fill="#9BA9B0" fill-rule="nonzero" transform="translate(57.703125, 21.000000) scale(-1, 1) translate(-57.703125, -21.000000) " xlink:href="#path-1"></use>
        </g>
    </g>
</svg>