<?xml version="1.0" encoding="UTF-8"?>
<svg width="95px" height="42px" viewBox="0 0 95 42" version="1.1" xmlns="http://www.w3.org/2000/svg" xmlns:xlink="http://www.w3.org/1999/xlink">
    <!-- Generator: Sketch 48.2 (47327) - http://www.bohemiancoding.com/sketch -->
    <title>Icons / 140 Copy</title>
    <desc>Created with Sketch.</desc>
    <defs>
        <path d="M78.1182065,37.2 L74.0461957,37.2 C74.0461957,33.8448701 71.3115435,31.125 67.9381793,31.125 C64.5648151,31.125 61.8301631,33.8448701 61.8301631,37.2 L19.074049,37.2 L17.0380435,37.2 C17.0380435,33.8448701 14.3033914,31.125 10.9300272,31.125 C7.55666291,31.125 4.82201086,33.8448701 4.82201086,37.2 L0.75,37.2 L0.75,6.825 L21.1100543,6.825 L21.1100543,27.075 L94.40625,27.075 L94.40625,37.2 L90.3342391,37.2 C90.3342391,33.8448701 87.5995871,31.125 84.2262228,31.125 C80.8528586,31.125 78.1182065,33.8448701 78.1182065,37.2 Z M67.9381793,41.25 C65.6892699,41.25 63.8661685,39.4367532 63.8661685,37.2 C63.8661685,34.9632468 65.6892699,33.15 67.9381793,33.15 C70.1870889,33.15 72.0101902,34.9632468 72.0101902,37.2 C72.0101902,39.4367532 70.1870889,41.25 67.9381793,41.25 Z M10.9300272,41.25 C8.68111767,41.25 6.85801631,39.4367532 6.85801631,37.2 C6.85801631,34.9632468 8.68111767,33.15 10.9300272,33.15 C13.1789367,33.15 15.0020381,34.9632468 15.0020381,37.2 C15.0020381,39.4367532 13.1789367,41.25 10.9300272,41.25 Z M23.1460598,0.75 L94.40625,0.75 L94.40625,25.05 L23.1460598,25.05 L23.1460598,0.75 Z M84.2262228,41.25 C81.9773133,41.25 80.1542119,39.4367532 80.1542119,37.2 C80.1542119,34.9632468 81.9773133,33.15 84.2262228,33.15 C86.4751323,33.15 88.2982336,34.9632468 88.2982336,37.2 C88.2982336,39.4367532 86.4751323,41.25 84.2262228,41.25 Z" id="path-1"></path>
    </defs>
    <g id="Artboard" stroke="none" stroke-width="1" fill="none" fill-rule="evenodd" transform="translate(-289.000000, -157.000000)">
        <g id="Icons-/-140-Copy" transform="translate(289.000000, 157.000000)">
            <mask id="mask-2" fill="white">
                <use xlink:href="#path-1"></use>
            </mask>
            <use id="Combined-Shape" fill="#9BA9B0" fill-rule="nonzero" xlink:href="#path-1"></use>
        </g>
    </g>
</svg>