<?xml version="1.0" encoding="UTF-8"?>
<svg width="72px" height="42px" viewBox="0 0 72 42" version="1.1" xmlns="http://www.w3.org/2000/svg" xmlns:xlink="http://www.w3.org/1999/xlink">
    <!-- Generator: Sketch 48.2 (47327) - http://www.bohemiancoding.com/sketch -->
    <title>Icons / 140 Copy 3</title>
    <desc>Created with Sketch.</desc>
    <defs>
        <path d="M71.2241379,26.625 L71.2241379,36.75 L66.7726293,36.75 C66.7726293,33.022078 63.7831169,29.9999999 60.0953664,29.9999999 C56.4076158,29.9999999 53.4181034,33.022078 53.4181034,36.75 L20.0317888,36.75 L17.8060345,36.75 C17.8060345,33.022078 14.8165221,29.9999999 11.1287716,29.9999999 C7.44102106,29.9999999 4.45150862,33.022078 4.45150862,36.75 L0,36.75 L0,21 L15.5802802,12.0000001 L15.5802802,0.75 L71.2241379,0.75 L71.2241379,26.625 Z M11.1287716,41.25 C8.67027123,41.25 6.67726293,39.2352814 6.67726293,36.75 C6.67726293,34.2647186 8.67027123,32.2500001 11.1287716,32.2500001 C13.5872719,32.2500001 15.5802802,34.2647186 15.5802802,36.75 C15.5802802,39.2352814 13.5872719,41.25 11.1287716,41.25 Z M60.0953664,41.25 C57.6368661,41.25 55.6438578,39.2352814 55.6438578,36.75 C55.6438578,34.2647186 57.6368661,32.2500001 60.0953664,32.2500001 C62.5538666,32.2500001 64.546875,34.2647186 64.546875,36.75 C64.546875,39.2352814 62.5538666,41.25 60.0953664,41.25 Z" id="path-1"></path>
    </defs>
    <g id="Artboard" stroke="none" stroke-width="1" fill="none" fill-rule="evenodd" transform="translate(-484.000000, -157.000000)">
        <g id="Icons-/-140-Copy-3" transform="translate(484.000000, 157.000000)">
            <mask id="mask-2" fill="white">
                <use xlink:href="#path-1"></use>
            </mask>
            <use id="Combined-Shape" fill="#9BA9B0" fill-rule="nonzero" xlink:href="#path-1"></use>
        </g>
    </g>
</svg>